<?xml version="1.0" encoding="UTF-8" standalone="no"?>
<!DOCTYPE svg PUBLIC "-//W3C//DTD SVG 1.1//EN" "http://www.w3.org/Graphics/SVG/1.1/DTD/svg11.dtd">
<svg version="1.1" xmlns="http://www.w3.org/2000/svg" xmlns:xlink="http://www.w3.org/1999/xlink" preserveAspectRatio="xMidYMid meet" viewBox="0 0 1920 1080" width="1920" height="1080"><defs><path d="M622.17 624.71L620 610L587.39 596.45L598.26 580L526.52 545.72L550 516.74L364.2 408.04L360 252.25L251.88 320L193.19 267.46L323.62 200L190 200" id="h8zzQYgog"></path><path d="M104.6 59.24L127.25 30L81.96 30L36.67 30L59.31 59.24L81.96 88.48L104.6 59.24Z" id="eZI8HQRY6"></path><path d="M239.82 471.9L179.64 347.62L142.66 373.78L105.69 399.93L202.84 498.06L300 596.19L239.82 471.9Z" id="d2E9SHxKJd"></path><path d="" id="i1nyETl9jV"></path><path d="M570 169.12L638.41 58.23L615.95 47.2L593.5 36.17L547.54 158.08L501.59 280L570 169.12Z" id="aDHxj1msa"></path><path d="M1200 1080L1350 937.3L1200 877.5L1350 757.3L1200 665.3L1350 409.3L1200 337.5L1350 168.75L1170 0" id="e2urX7ZNs5"></path><path d="M1688 636.07L1751.75 584.5L1815.5 636.07L1791.15 719.5L1712.35 719.5L1688 636.07Z" id="byP7yu0Ir"></path><path d="M1875.32 43.64L1875.36 43.65L1875.4 43.65L1875.45 43.67L1875.49 43.68L1875.52 43.69L1875.56 43.71L1875.6 43.73L1875.63 43.75L1875.67 43.77L1875.7 43.8L1875.73 43.82L1875.76 43.85L1875.8 43.88L1875.82 43.91L1875.85 43.94L1875.88 43.98L1875.91 44.01L1875.94 44.05L1875.96 44.09L1875.99 44.13L1876.01 44.17L1876.03 44.22L1876.06 44.26L1876.08 44.31L1876.1 44.36L1876.12 44.4L1876.15 44.45L1876.17 44.5L1876.19 44.56L1876.21 44.61L1876.23 44.66L1876.25 44.72L1876.27 44.77L1876.29 44.83L1876.31 44.88L1876.33 44.94L1876.34 45L1876.36 45.06L1877.35 48.74L1877.65 48.84L1878.34 49.08L1879.01 49.35L1879.66 49.64L1880.3 49.96L1880.36 49.99L1883.67 48.07L1883.73 48.04L1883.78 48.01L1883.83 47.99L1883.89 47.96L1883.94 47.94L1883.99 47.91L1884.05 47.89L1884.1 47.86L1884.15 47.84L1884.2 47.82L1884.25 47.8L1884.3 47.78L1884.35 47.76L1884.4 47.74L1884.45 47.72L1884.5 47.71L1884.54 47.7L1884.59 47.68L1884.64 47.67L1884.68 47.66L1884.73 47.65L1884.77 47.65L1884.82 47.64L1884.86 47.64L1884.9 47.64L1884.95 47.64L1884.99 47.64L1885.03 47.65L1885.07 47.65L1885.11 47.66L1885.15 47.67L1885.19 47.68L1885.23 47.7L1885.27 47.72L1885.3 47.73L1885.34 47.76L1885.38 47.78L1885.41 47.81L1885.44 47.84L1885.48 47.87L1890.3 52.69L1890.33 52.72L1890.36 52.76L1890.39 52.79L1890.41 52.83L1890.44 52.87L1890.46 52.9L1890.47 52.94L1890.49 52.98L1890.5 53.02L1890.51 53.06L1890.52 53.11L1890.53 53.15L1890.54 53.19L1890.54 53.23L1890.54 53.28L1890.54 53.32L1890.54 53.37L1890.54 53.41L1890.53 53.46L1890.52 53.5L1890.52 53.55L1890.51 53.6L1890.49 53.65L1890.48 53.69L1890.47 53.74L1890.45 53.79L1890.43 53.84L1890.41 53.89L1890.39 53.94L1890.37 53.99L1890.35 54.04L1890.33 54.09L1890.3 54.14L1890.27 54.19L1890.25 54.24L1890.22 54.29L1890.19 54.34L1890.16 54.4L1890.13 54.45L1890.1 54.5L1888.18 57.81L1888.22 57.88L1888.54 58.52L1888.83 59.18L1889.1 59.85L1889.34 60.53L1889.44 60.84L1893.13 61.82L1893.18 61.83L1893.24 61.85L1893.3 61.86L1893.36 61.88L1893.41 61.89L1893.47 61.91L1893.52 61.93L1893.57 61.95L1893.63 61.96L1893.68 61.98L1893.73 62L1893.78 62.03L1893.83 62.05L1893.87 62.07L1893.92 62.09L1893.96 62.12L1894.01 62.14L1894.05 62.17L1894.09 62.19L1894.13 62.22L1894.17 62.25L1894.2 62.28L1894.24 62.31L1894.27 62.34L1894.3 62.37L1894.33 62.4L1894.36 62.43L1894.39 62.47L1894.41 62.5L1894.43 62.54L1894.45 62.57L1894.47 62.61L1894.49 62.65L1894.5 62.69L1894.52 62.73L1894.53 62.78L1894.53 62.82L1894.54 62.86L1894.54 62.91L1894.55 62.95L1894.55 69.77L1894.54 69.82L1894.54 69.86L1894.53 69.91L1894.53 69.95L1894.52 69.99L1894.5 70.03L1894.49 70.07L1894.47 70.11L1894.45 70.14L1894.43 70.18L1894.41 70.21L1894.39 70.25L1894.36 70.28L1894.33 70.31L1894.3 70.34L1894.27 70.37L1894.24 70.4L1894.2 70.43L1894.17 70.45L1894.13 70.48L1894.09 70.51L1894.05 70.53L1894.01 70.56L1893.96 70.58L1893.92 70.6L1893.87 70.63L1893.83 70.65L1893.78 70.67L1893.73 70.69L1893.68 70.71L1893.63 70.73L1893.57 70.75L1893.52 70.77L1893.47 70.79L1893.41 70.81L1893.36 70.83L1893.3 70.85L1893.24 70.87L1893.18 70.89L1893.13 70.91L1889.44 71.89L1889.34 72.2L1889.1 72.88L1888.83 73.55L1888.54 74.21L1888.22 74.85L1888.19 74.91L1890.1 78.22L1890.13 78.27L1890.16 78.32L1890.19 78.37L1890.22 78.42L1890.25 78.47L1890.27 78.52L1890.3 78.57L1890.33 78.62L1890.35 78.67L1890.37 78.72L1890.39 78.77L1890.41 78.82L1890.43 78.87L1890.45 78.92L1890.47 78.97L1890.48 79.02L1890.49 79.07L1890.51 79.12L1890.52 79.16L1890.52 79.21L1890.53 79.26L1890.54 79.3L1890.54 79.35L1890.54 79.39L1890.54 79.44L1890.54 79.48L1890.54 79.52L1890.53 79.57L1890.52 79.61L1890.51 79.65L1890.5 79.69L1890.49 79.73L1890.47 79.77L1890.46 79.81L1890.44 79.85L1890.41 79.88L1890.39 79.92L1890.36 79.96L1890.33 79.99L1890.3 80.02L1885.48 84.84L1885.44 84.88L1885.41 84.91L1885.38 84.93L1885.34 84.96L1885.3 84.98L1885.27 85L1885.23 85.02L1885.19 85.03L1885.15 85.04L1885.11 85.05L1885.07 85.06L1885.03 85.07L1884.99 85.07L1884.95 85.07L1884.9 85.07L1884.86 85.07L1884.82 85.07L1884.77 85.07L1884.73 85.06L1884.68 85.05L1884.64 85.04L1884.59 85.03L1884.54 85.02L1884.5 85L1884.45 84.99L1884.4 84.97L1884.35 84.95L1884.3 84.94L1884.25 84.92L1884.2 84.9L1884.15 84.87L1884.1 84.85L1884.05 84.83L1883.99 84.8L1883.94 84.78L1883.89 84.75L1883.83 84.73L1883.78 84.7L1883.73 84.67L1883.67 84.64L1880.37 82.73L1880.3 82.77L1879.66 83.09L1879.01 83.38L1878.34 83.65L1877.65 83.89L1877.35 83.98L1876.36 87.67L1876.34 87.73L1876.33 87.79L1876.31 87.84L1876.29 87.9L1876.27 87.96L1876.25 88.01L1876.23 88.07L1876.21 88.12L1876.19 88.17L1876.17 88.22L1876.15 88.27L1876.12 88.32L1876.1 88.37L1876.08 88.42L1876.06 88.46L1876.03 88.51L1876.01 88.55L1875.99 88.59L1875.96 88.64L1875.94 88.67L1875.91 88.71L1875.88 88.75L1875.85 88.78L1875.82 88.82L1875.8 88.85L1875.76 88.88L1875.73 88.91L1875.7 88.93L1875.67 88.96L1875.63 88.98L1875.6 89L1875.56 89.02L1875.52 89.04L1875.49 89.05L1875.45 89.06L1875.4 89.07L1875.36 89.08L1875.32 89.09L1875.27 89.09L1875.23 89.09L1868.41 89.09L1868.36 89.09L1868.32 89.09L1868.27 89.08L1868.23 89.07L1868.19 89.06L1868.15 89.05L1868.11 89.04L1868.07 89.02L1868.03 89L1867.99 88.98L1867.96 88.96L1867.92 88.93L1867.89 88.91L1867.85 88.88L1867.82 88.85L1867.79 88.82L1867.76 88.78L1867.73 88.75L1867.7 88.71L1867.67 88.67L1867.65 88.64L1867.62 88.59L1867.6 88.55L1867.57 88.51L1867.55 88.46L1867.52 88.42L1867.5 88.37L1867.48 88.32L1867.46 88.27L1867.44 88.22L1867.42 88.17L1867.4 88.12L1867.38 88.07L1867.36 88.01L1867.35 87.96L1867.33 87.9L1867.32 87.84L1867.3 87.79L1867.29 87.73L1867.27 87.67L1866.29 83.98L1865.98 83.89L1865.3 83.65L1864.63 83.38L1863.97 83.09L1863.33 82.77L1863.25 82.73L1859.97 84.63L1859.91 84.66L1859.86 84.69L1859.81 84.72L1859.76 84.75L1859.71 84.78L1859.66 84.81L1859.61 84.83L1859.56 84.86L1859.51 84.88L1859.46 84.9L1859.41 84.93L1859.36 84.95L1859.31 84.96L1859.26 84.98L1859.21 85L1859.16 85.01L1859.11 85.03L1859.07 85.04L1859.02 85.05L1858.97 85.06L1858.93 85.06L1858.88 85.07L1858.83 85.07L1858.79 85.07L1858.75 85.07L1858.7 85.07L1858.66 85.07L1858.62 85.06L1858.57 85.06L1858.53 85.05L1858.49 85.04L1858.45 85.02L1858.41 85.01L1858.37 84.99L1858.34 84.97L1858.3 84.94L1858.26 84.92L1858.23 84.89L1858.19 84.86L1858.16 84.83L1853.34 80.01L1853.31 79.98L1853.28 79.94L1853.25 79.91L1853.22 79.87L1853.2 79.84L1853.18 79.8L1853.17 79.76L1853.15 79.72L1853.14 79.68L1853.13 79.64L1853.12 79.6L1853.11 79.56L1853.11 79.52L1853.11 79.48L1853.11 79.44L1853.11 79.39L1853.11 79.35L1853.12 79.31L1853.12 79.26L1853.13 79.22L1853.14 79.17L1853.15 79.12L1853.16 79.08L1853.18 79.03L1853.19 78.98L1853.21 78.93L1853.23 78.88L1853.25 78.83L1853.27 78.78L1853.29 78.73L1853.31 78.68L1853.33 78.63L1853.35 78.58L1853.38 78.53L1853.4 78.47L1853.43 78.42L1853.46 78.37L1853.48 78.31L1853.51 78.26L1853.54 78.2L1855.45 74.91L1855.41 74.85L1855.1 74.21L1854.8 73.55L1854.54 72.88L1854.29 72.2L1854.2 71.89L1850.51 70.91L1850.45 70.89L1850.39 70.87L1850.34 70.85L1850.28 70.83L1850.23 70.81L1850.17 70.79L1850.12 70.77L1850.06 70.75L1850.01 70.73L1849.96 70.71L1849.91 70.69L1849.86 70.67L1849.81 70.65L1849.76 70.63L1849.72 70.6L1849.67 70.58L1849.63 70.56L1849.59 70.53L1849.55 70.51L1849.51 70.48L1849.47 70.45L1849.43 70.43L1849.4 70.4L1849.37 70.37L1849.33 70.34L1849.3 70.31L1849.28 70.28L1849.25 70.25L1849.23 70.21L1849.2 70.18L1849.18 70.14L1849.16 70.11L1849.15 70.07L1849.13 70.03L1849.12 69.99L1849.11 69.95L1849.1 69.91L1849.1 69.86L1849.09 69.82L1849.09 69.77L1849.09 62.95L1849.09 62.91L1849.1 62.86L1849.1 62.82L1849.11 62.78L1849.12 62.73L1849.13 62.69L1849.15 62.65L1849.16 62.61L1849.18 62.57L1849.2 62.54L1849.23 62.5L1849.25 62.47L1849.28 62.43L1849.3 62.4L1849.33 62.37L1849.37 62.34L1849.4 62.31L1849.43 62.28L1849.47 62.25L1849.51 62.22L1849.55 62.19L1849.59 62.17L1849.63 62.14L1849.67 62.12L1849.72 62.09L1849.76 62.07L1849.81 62.05L1849.86 62.03L1849.91 62L1849.96 61.98L1850.01 61.96L1850.06 61.95L1850.12 61.93L1850.17 61.91L1850.23 61.89L1850.28 61.88L1850.34 61.86L1850.39 61.85L1850.45 61.83L1850.51 61.82L1854.2 60.84L1854.29 60.53L1854.54 59.85L1854.8 59.18L1855.1 58.52L1855.41 57.88L1855.45 57.81L1853.54 54.51L1853.51 54.46L1853.48 54.4L1853.46 54.35L1853.43 54.29L1853.4 54.24L1853.38 54.19L1853.35 54.14L1853.33 54.08L1853.31 54.03L1853.29 53.98L1853.27 53.93L1853.25 53.88L1853.23 53.83L1853.21 53.78L1853.19 53.73L1853.18 53.69L1853.16 53.64L1853.15 53.59L1853.14 53.54L1853.13 53.5L1853.12 53.45L1853.12 53.41L1853.11 53.36L1853.11 53.32L1853.11 53.28L1853.11 53.23L1853.11 53.19L1853.11 53.15L1853.12 53.11L1853.13 53.07L1853.14 53.03L1853.15 52.99L1853.17 52.95L1853.18 52.92L1853.2 52.88L1853.22 52.84L1853.25 52.81L1853.28 52.77L1853.31 52.74L1853.34 52.7L1858.16 47.88L1858.19 47.85L1858.23 47.82L1858.26 47.79L1858.3 47.77L1858.34 47.75L1858.37 47.73L1858.41 47.71L1858.45 47.69L1858.49 47.68L1858.53 47.67L1858.57 47.66L1858.62 47.65L1858.66 47.64L1858.7 47.64L1858.75 47.64L1858.79 47.64L1858.83 47.64L1858.88 47.64L1858.93 47.65L1858.97 47.66L1859.02 47.67L1859.07 47.68L1859.11 47.69L1859.16 47.7L1859.21 47.72L1859.26 47.73L1859.31 47.75L1859.36 47.77L1859.41 47.79L1859.46 47.81L1859.51 47.83L1859.56 47.86L1859.61 47.88L1859.66 47.91L1859.71 47.93L1859.76 47.96L1859.81 47.99L1859.86 48.02L1859.91 48.05L1859.97 48.08L1863.27 49.99L1863.33 49.96L1863.97 49.64L1864.63 49.35L1865.3 49.08L1865.98 48.84L1866.29 48.74L1867.27 45.06L1867.29 45L1867.3 44.94L1867.32 44.88L1867.33 44.83L1867.35 44.77L1867.36 44.72L1867.38 44.66L1867.4 44.61L1867.42 44.56L1867.44 44.5L1867.46 44.45L1867.48 44.4L1867.5 44.36L1867.52 44.31L1867.55 44.26L1867.57 44.22L1867.6 44.17L1867.62 44.13L1867.65 44.09L1867.67 44.05L1867.7 44.01L1867.73 43.98L1867.76 43.94L1867.79 43.91L1867.82 43.88L1867.85 43.85L1867.89 43.82L1867.92 43.8L1867.96 43.77L1867.99 43.75L1868.03 43.73L1868.07 43.71L1868.11 43.69L1868.15 43.68L1868.19 43.67L1868.23 43.65L1868.27 43.65L1868.32 43.64L1868.36 43.64L1868.41 43.64L1875.23 43.64L1875.27 43.64L1875.32 43.64ZM1871 56.45L1870.6 56.49L1870.21 56.55L1869.81 56.62L1869.43 56.71L1869.05 56.81L1868.68 56.93L1868.31 57.06L1867.95 57.2L1867.59 57.36L1867.25 57.53L1866.91 57.71L1866.58 57.91L1866.26 58.12L1865.95 58.34L1865.64 58.57L1865.35 58.81L1865.06 59.07L1864.79 59.33L1864.52 59.61L1864.27 59.89L1864.03 60.19L1863.79 60.49L1863.57 60.8L1863.36 61.13L1863.17 61.46L1862.98 61.79L1862.81 62.14L1862.66 62.49L1862.51 62.85L1862.38 63.22L1862.27 63.59L1862.16 63.97L1862.08 64.36L1862.01 64.75L1861.95 65.15L1861.91 65.55L1861.88 65.95L1861.88 66.36L1861.88 66.77L1861.91 67.18L1861.95 67.58L1862.01 67.98L1862.08 68.37L1862.16 68.75L1862.27 69.13L1862.38 69.51L1862.51 69.87L1862.66 70.23L1862.81 70.59L1862.98 70.93L1863.17 71.27L1863.36 71.6L1863.57 71.92L1863.79 72.24L1864.03 72.54L1864.27 72.83L1864.52 73.12L1864.79 73.39L1865.06 73.66L1865.35 73.91L1865.64 74.16L1865.95 74.39L1866.26 74.61L1866.58 74.82L1866.91 75.01L1867.25 75.2L1867.59 75.37L1867.95 75.53L1868.31 75.67L1868.68 75.8L1869.05 75.92L1869.43 76.02L1869.81 76.1L1870.21 76.18L1870.6 76.23L1871 76.27L1871.41 76.3L1871.82 76.31L1872.23 76.3L1872.63 76.27L1873.03 76.23L1873.43 76.18L1873.82 76.1L1874.21 76.02L1874.59 75.92L1874.96 75.8L1875.33 75.67L1875.69 75.53L1876.04 75.37L1876.39 75.2L1876.73 75.01L1877.06 74.82L1877.38 74.61L1877.69 74.39L1877.99 74.16L1878.29 73.91L1878.57 73.66L1878.85 73.39L1879.11 73.12L1879.37 72.83L1879.61 72.54L1879.84 72.24L1880.06 71.92L1880.27 71.6L1880.47 71.27L1880.65 70.93L1880.82 70.59L1880.98 70.23L1881.12 69.87L1881.25 69.51L1881.37 69.13L1881.47 68.75L1881.56 68.37L1881.63 67.98L1881.69 67.58L1881.73 67.18L1881.75 66.77L1881.76 66.36L1881.75 65.95L1881.73 65.55L1881.69 65.15L1881.63 64.75L1881.56 64.36L1881.47 63.97L1881.37 63.59L1881.25 63.22L1881.12 62.85L1880.98 62.49L1880.82 62.14L1880.65 61.79L1880.47 61.46L1880.27 61.13L1880.06 60.8L1879.84 60.49L1879.61 60.19L1879.37 59.89L1879.11 59.61L1878.85 59.33L1878.57 59.07L1878.29 58.81L1877.99 58.57L1877.69 58.34L1877.38 58.12L1877.06 57.91L1876.73 57.71L1876.39 57.53L1876.04 57.36L1875.69 57.2L1875.33 57.06L1874.96 56.93L1874.59 56.81L1874.21 56.71L1873.82 56.62L1873.43 56.55L1873.03 56.49L1872.63 56.45L1872.23 56.43L1871.82 56.42L1871.41 56.43L1871 56.45Z" id="aqmNnI3M"></path></defs><g><g><g><g><use xlink:href="#h8zzQYgog" opacity="1" fill-opacity="0" stroke="#000000" stroke-width="1" stroke-opacity="1"></use></g></g><g><use xlink:href="#eZI8HQRY6" opacity="1" fill="#a9c998" fill-opacity="1"></use></g><g><use xlink:href="#d2E9SHxKJd" opacity="1" fill="#a9c998" fill-opacity="1"></use></g><g><g><use xlink:href="#i1nyETl9jV" opacity="1" fill-opacity="0" stroke="#000000" stroke-width="1" stroke-opacity="1"></use></g></g><g><use xlink:href="#aDHxj1msa" opacity="1" fill="#a9c998" fill-opacity="1"></use></g><g><g><use xlink:href="#e2urX7ZNs5" opacity="1" fill-opacity="0" stroke="#000000" stroke-width="1" stroke-opacity="1"></use></g></g><g><use xlink:href="#byP7yu0Ir" opacity="1" fill="#86669d" fill-opacity="1"></use></g><g><use xlink:href="#aqmNnI3M" opacity="1" fill="#888289" fill-opacity="1"></use></g></g></g></svg>